<svg xmlns="http://www.w3.org/2000/svg" viewBox="0 0 880 330" width="880" height="330" role="img" aria-label="CTF-Solver 구조: LLM이 MCP로 FastMCP 서버에 연결되고, 서버가 Kali 보안도구 55종 이상을 호출한다. 기존 서버가 단발 실행만 가능했던 것과 달리 도구 실행, 출력 해석, 다음 도구 선택을 반복하는 멀티스텝 워크플로로 동작한다">
  <style>
    :root {
      --ink: #1c1b22;
      --ink-dim: #55535e;
      --line: #c9c6d2;
      --panel: #f4f2f8;
      --accent: #6a4dbd;
      --accent-soft: #ece7f8;
      --past: #efedf2;
    }
    @media (prefers-color-scheme: dark) {
      :root {
        --ink: #d6d4de;
        --ink-dim: #93919f;
        --line: #3a3846;
        --panel: #1a1a20;
        --accent: #9d8cd8;
        --accent-soft: #241f33;
        --past: #18171d;
      }
    }
    .box { fill: var(--panel); stroke: var(--line); stroke-width: 1; }
    .box-accent { fill: var(--accent-soft); stroke: var(--accent); stroke-width: 1; }
    .box-past { fill: var(--past); stroke: var(--line); stroke-width: 1; stroke-dasharray: 4 3; }
    .t { fill: var(--ink); font: 600 13px 'Helvetica Neue', Arial, sans-serif; }
    .s { fill: var(--ink-dim); font: 400 11px 'Helvetica Neue', Arial, sans-serif; }
    .lbl { fill: var(--accent); font: 600 10px 'Helvetica Neue', Arial, sans-serif; letter-spacing: .08em; }
    .arrow { stroke: var(--line); stroke-width: 1.5; fill: none; }
    .arrow-accent { stroke: var(--accent); stroke-width: 1.5; fill: none; }
    .rule { stroke: var(--line); stroke-width: 1; }
  </style>

  <defs>
    <marker id="a" viewBox="0 0 8 8" refX="7" refY="4" markerWidth="7" markerHeight="7" orient="auto">
      <path d="M0 0 L8 4 L0 8 z" fill="var(--line)" />
    </marker>
    <marker id="ab" viewBox="0 0 8 8" refX="1" refY="4" markerWidth="7" markerHeight="7" orient="auto">
      <path d="M8 0 L0 4 L8 8 z" fill="var(--line)" />
    </marker>
    <marker id="aa" viewBox="0 0 8 8" refX="7" refY="4" markerWidth="7" markerHeight="7" orient="auto">
      <path d="M0 0 L8 4 L0 8 z" fill="var(--accent)" />
    </marker>
  </defs>

  <!-- ── 상단: 구조 ── -->
  <rect class="box" x="16" y="40" width="168" height="64" rx="8" />
  <text class="t" x="100" y="68" text-anchor="middle">LLM</text>
  <text class="s" x="100" y="85" text-anchor="middle">MCP 클라이언트</text>

  <path class="arrow" d="M192 72 H240" marker-end="url(#a)" marker-start="url(#ab)" />
  <text class="lbl" x="216" y="62" text-anchor="middle">MCP</text>

  <rect class="box-accent" x="248" y="30" width="212" height="84" rx="8" />
  <text class="t" x="354" y="60" text-anchor="middle">CTF-Solver 서버</text>
  <text class="s" x="354" y="78" text-anchor="middle">FastMCP · Flask</text>
  <text class="s" x="354" y="94" text-anchor="middle">Docker</text>

  <path class="arrow" d="M468 72 H516" marker-end="url(#a)" />

  <rect class="box" x="524" y="40" width="200" height="64" rx="8" />
  <text class="t" x="624" y="68" text-anchor="middle">Kali 보안도구</text>
  <text class="s" x="624" y="85" text-anchor="middle">기존 약 10종 → 55종 이상</text>

  <!-- ── 구분선 ── -->
  <line class="rule" x1="16" y1="146" x2="864" y2="146" />

  <!-- ── 하단: 멀티스텝 루프 ── -->
  <text class="lbl" x="16" y="176">MULTI-STEP</text>
  <text class="t" x="16" y="196">멀티스텝 워크플로</text>

  <rect class="box-past" x="184" y="168" width="176" height="36" rx="6" />
  <text class="s" x="272" y="191" text-anchor="middle">기존 서버: 단발 실행만</text>

  <rect class="box" x="16" y="232" width="150" height="52" rx="8" />
  <text class="t" x="91" y="255" text-anchor="middle">도구 실행</text>
  <text class="s" x="91" y="271" text-anchor="middle">① </text>

  <path class="arrow-accent" d="M174 258 H206" marker-end="url(#aa)" />

  <rect class="box" x="214" y="232" width="150" height="52" rx="8" />
  <text class="t" x="289" y="255" text-anchor="middle">출력 해석</text>
  <text class="s" x="289" y="271" text-anchor="middle">②</text>

  <path class="arrow-accent" d="M372 258 H404" marker-end="url(#aa)" />

  <rect class="box" x="412" y="232" width="164" height="52" rx="8" />
  <text class="t" x="494" y="255" text-anchor="middle">다음 도구 선택</text>
  <text class="s" x="494" y="271" text-anchor="middle">③</text>

  <path class="arrow-accent" d="M584 258 H616" marker-end="url(#aa)" />

  <rect class="box-accent" x="624" y="232" width="150" height="52" rx="8" />
  <text class="t" x="699" y="263" text-anchor="middle">플래그</text>

  <!-- 반복 화살표 -->
  <path class="arrow-accent" d="M494 284 V310 H91 V292" marker-end="url(#aa)" />
  <text class="lbl" x="300" y="324" text-anchor="middle">반복</text>
</svg>
