<svg xmlns="http://www.w3.org/2000/svg" viewBox="0 0 880 300" width="880" height="300" role="img" aria-label="VOCAB CURATOR 흐름. 학습자 프로필과 원문을 받아 Solar Pro 4가 어휘를 선별하고, 학습 이력 DB로 중복을 걸러 단어 카드와 CSV 단어장을 낸다.">
  <style>
    :root{--ink:#1c1b22;--dim:#55535e;--faint:#8a8896;--line:#c9c6d2;--panel:#f4f2f8;--accent:#6a4dbd;--soft:#ece7f8}
    @media (prefers-color-scheme:dark){:root{--ink:#d6d4de;--dim:#93919f;--faint:#6f6d7a;--line:#3a3846;--panel:#1a1a20;--accent:#9d8cd8;--soft:#241f33}}
    .box{fill:var(--panel);stroke:var(--line);stroke-width:1}
    .acc{fill:var(--soft);stroke:var(--accent);stroke-width:1}
    .t{fill:var(--ink);font:600 13px 'Helvetica Neue',Arial,sans-serif}
    .s{fill:var(--dim);font:400 11px 'Helvetica Neue',Arial,sans-serif}
    .c{fill:var(--faint);font:400 10px 'Helvetica Neue',Arial,sans-serif}
    .lb{fill:var(--accent);font:600 10px 'Helvetica Neue',Arial,sans-serif;letter-spacing:.08em}
    .ar{stroke:var(--line);stroke-width:1.5;fill:none}
    .rule{stroke:var(--line);stroke-width:1}
  </style>
  <defs><marker id="a" viewBox="0 0 8 8" refX="7" refY="4" markerWidth="7" markerHeight="7" orient="auto"><path d="M0 0 L8 4 L0 8 z" fill="var(--line)"/></marker></defs>

  <text class="t" x="16" y="24">평균 학습자가 아니라 이 사람에게 필요한 단어만</text>
  <line class="rule" x1="16" y1="40" x2="864" y2="40"/>

  <!-- 입력 -->
  <rect class="box" x="16" y="72" width="168" height="48" rx="8"/>
  <text class="t" x="32" y="93">학습자 프로필</text>
  <text class="s" x="32" y="109">상황 · 수준 · 목표</text>

  <rect class="box" x="16" y="136" width="168" height="48" rx="8"/>
  <text class="t" x="32" y="157">원문</text>
  <text class="s" x="32" y="173">텍스트 · PDF 업로드</text>

  <path class="ar" d="M184 96 H224 V122 H262" marker-end="url(#a)"/>
  <path class="ar" d="M184 160 H224 V138 H262" marker-end="url(#a)"/>

  <!-- 선별 -->
  <rect class="acc" x="266" y="96" width="186" height="68" rx="8"/>
  <text class="lb" x="359" y="118" text-anchor="middle">SOLAR PRO 4</text>
  <text class="t" x="359" y="138" text-anchor="middle">어휘 선별</text>
  <text class="s" x="359" y="154" text-anchor="middle">중요도 · 예문 생성</text>

  <!-- 학습 이력 -->
  <rect class="box" x="266" y="196" width="186" height="46" rx="8"/>
  <text class="t" x="359" y="217" text-anchor="middle">학습 이력 DB</text>
  <text class="s" x="359" y="233" text-anchor="middle">이미 뽑은 단어 제외</text>
  <path class="ar" d="M359 196 V172" marker-end="url(#a)"/>

  <path class="ar" d="M452 130 H492" marker-end="url(#a)"/>

  <!-- 출력 -->
  <rect class="box" x="496" y="72" width="186" height="52" rx="8"/>
  <text class="t" x="512" y="94">단어 카드</text>
  <text class="s" x="512" y="111">뜻 · 상황 예문 · 중요도</text>

  <rect class="box" x="496" y="136" width="186" height="52" rx="8"/>
  <text class="t" x="512" y="158">오늘 바로 쓸 표현</text>
  <text class="s" x="512" y="175">단어별 3개</text>

  <rect class="box" x="496" y="200" width="186" height="46" rx="8"/>
  <text class="t" x="512" y="228">CSV 단어장</text>

  <path class="ar" d="M682 98 H720 V158 H756" marker-end="url(#a)"/>
  <path class="ar" d="M682 162 H756" marker-end="url(#a)"/>
  <path class="ar" d="M682 223 H720 V178 H756" marker-end="url(#a)"/>

  <rect class="acc" x="760" y="134" width="104" height="52" rx="8"/>
  <text class="t" x="812" y="165" text-anchor="middle">학습자</text>

  <text class="c" x="16" y="278">원문당 최대 20개 선별 · Node.js · Express.js · PDF.js</text>
</svg>
